HIERARCHY
ROOT Pelvis
{
	OFFSET 0.005737 0.957955 0.007779
	CHANNELS 6 Xposition Yposition Zposition Zrotation Yrotation Xrotation 
	JOINT L_Hip
	{
		OFFSET 0.055946 -0.083912 -0.009647
		CHANNELS 3 Zrotation Yrotation Xrotation
		JOINT L_Knee
		{
			OFFSET 0.052208 -0.390400 0.003537
			CHANNELS 3 Zrotation Yrotation Xrotation
			JOINT L_Ankle
			{
				OFFSET -0.034175 -0.424165 -0.072654
				CHANNELS 3 Zrotation Yrotation Xrotation
				End Site #name: L_Foot
				{
					OFFSET 0.071823 -0.052317 0.107815
				}
			}
		}
	}
	JOINT R_Hip
	{
		OFFSET -0.059522 -0.090740 -0.013383
		CHANNELS 3 Zrotation Yrotation Xrotation
		JOINT R_Knee
		{
			OFFSET -0.045785 -0.387852 -0.032424
			CHANNELS 3 Zrotation Yrotation Xrotation
			JOINT R_Ankle
			{
				OFFSET 0.030382 -0.418739 -0.056813
				CHANNELS 3 Zrotation Yrotation Xrotation
				End Site #name: R_Foot
				{
					OFFSET -0.093219 -0.043878 0.112643
				}
			}
		}
	}
	JOINT Spine1
	{
		OFFSET -0.006142 0.126333 -0.037919
		CHANNELS 3 Zrotation Yrotation Xrotation
		JOINT Spine2
		{
			OFFSET -0.003550 0.141938 0.020804
			CHANNELS 3 Zrotation Yrotation Xrotation
			JOINT Spine3
			{
				OFFSET 0.000850 0.057043 0.007471
				CHANNELS 3 Zrotation Yrotation Xrotation
				JOINT Neck
				{
					OFFSET 0.008595 0.217310 -0.021189
					CHANNELS 3 Zrotation Yrotation Xrotation
					End Site #name: Head
					{
						OFFSET -0.007370 0.084059 0.057563
					}
				}
				JOINT L_Collar
				{
					OFFSET 0.076986 0.111201 -0.020716
					CHANNELS 3 Zrotation Yrotation Xrotation
					JOINT L_Shoulder
					{
						OFFSET 0.129352 -0.000076 -0.010777
						CHANNELS 3 Zrotation Yrotation Xrotation
						JOINT L_Elbow
						{
							OFFSET 0.024203 -0.254337 -0.040268
							CHANNELS 3 Zrotation Yrotation Xrotation
							End Site #name: L_Wrist
							{
								OFFSET 0.059899 -0.240078 0.094328
							}
						}
					}
				}
				JOINT R_Collar
				{
					OFFSET -0.076531 0.118456 -0.011338
					CHANNELS 3 Zrotation Yrotation Xrotation
					JOINT R_Shoulder
					{
						OFFSET -0.121460 -0.008513 -0.012848
						CHANNELS 3 Zrotation Yrotation Xrotation
						JOINT R_Elbow
						{
							OFFSET -0.003563 -0.261441 -0.030210
							CHANNELS 3 Zrotation Yrotation Xrotation
							End Site #name: R_Wrist
							{
								OFFSET -0.051635 -0.242764 0.104319
							}
						}
					}
				}
			}
		}
	}
}
MOTION
Frames: 9
Frame Time: 0.041667
0.005737 0.957955 0.007779 0.006090 -0.000284 -0.004049 0.000000 0.000000 0.000000 -0.015442 0.001802 0.010475 0.010437 0.000286 -0.015460 -0.012853 0.000077 0.008454 0.000000 0.000000 0.000000 0.000000 0.000000 0.000000 0.000000 0.000000 0.000000 -0.007000 0.000847 0.004706 0.004377 0.000556 -0.003271 -0.009363 0.007542 0.012869 0.000000 0.000000 0.000000 -0.017708 0.004100 0.013598 0.012176 0.001485 -0.013230 0.000000 0.000000 0.000000 -0.013005 0.001362 0.010385 0.004353 0.002753 -0.004149 
0.006607 0.956453 0.005720 0.159288 0.194242 0.105307 -0.268792 -0.018967 -0.121438 -0.383423 0.086047 -0.264536 0.651777 1.460928 0.096367 0.499459 -0.102899 0.498787 -0.448149 -0.044977 -1.384095 -1.470992 -2.950671 -0.364073 0.184180 -0.040960 -0.598091 -0.791739 0.107446 -0.477812 0.503991 0.207178 0.791019 -0.290265 0.281085 0.895052 0.561866 -0.827529 0.042296 -0.468398 -0.020676 -0.955712 -0.490192 0.005027 0.778764 -0.429081 -0.173950 0.058237 1.219792 -0.126085 -0.610057 -0.869590 -0.449914 0.378334 
0.005665 0.955503 0.005000 0.374157 0.324926 0.248647 -0.499669 -0.019805 -0.110548 -0.486272 0.139091 -0.733659 0.870800 2.102625 0.248765 0.629863 -0.160301 0.869628 -0.558280 -0.115990 -2.479812 -2.154183 -5.197413 -0.061417 0.176078 -0.057978 -1.374817 -1.382532 0.180030 0.387025 0.858109 0.328120 0.544702 -0.268777 0.375912 2.078156 1.189357 -1.857796 0.078830 -0.873391 0.008527 -1.262299 -0.453933 -0.079067 0.391612 -0.635617 -0.111073 0.075657 1.469295 -0.134241 -1.337761 -0.409454 -0.296276 0.579541 
0.004235 0.955510 0.005887 0.378616 0.338584 0.114631 -0.497486 -0.000520 0.028886 -0.191456 0.097835 -0.826036 1.076844 2.387938 0.151358 0.792962 -0.228542 1.295075 -0.523071 -0.163940 -3.052273 -2.234064 -5.292586 -0.110900 0.265313 -0.066430 -1.218293 -1.963047 0.257627 0.223557 1.185467 0.369116 0.651918 -0.052891 0.318599 3.135012 1.445940 -2.206113 0.091490 -1.071926 -0.008321 -1.703467 0.040471 0.258994 0.979263 -0.173318 -0.064992 0.022988 1.029152 -0.085078 -1.491524 -0.136154 -0.187944 0.614238 
0.003333 0.955458 0.006375 0.413155 0.424779 0.083779 -0.427983 -0.010075 -0.045047 -0.170298 0.086720 -0.729032 1.214389 2.570166 0.080005 0.812234 -0.223122 1.237269 -0.626906 -0.143281 -2.931429 -2.194969 -5.101121 -0.162427 0.254020 -0.063922 -1.175268 -2.156683 0.284884 0.580948 1.236715 0.369012 0.470711 -0.391770 0.562932 3.116663 1.513932 -2.676336 0.089382 -1.089195 -0.008091 -1.724932 0.450942 0.271242 0.385599 0.012153 0.187789 -0.014431 0.800167 -0.058793 -1.628846 -0.116216 -0.090438 0.191715 
0.003907 0.955795 0.006504 0.527261 0.419838 0.088993 -0.457692 -0.023890 -0.143254 -0.098357 0.063762 -0.589315 1.129775 2.693981 0.306291 0.701793 -0.205704 1.181456 -0.724483 -0.137580 -2.995111 -2.037588 -5.076346 0.020126 -0.010037 -0.029305 -1.228006 -2.081187 0.273831 0.363442 1.160310 0.337528 0.873120 -0.466427 0.614773 3.092264 1.623215 -2.837868 0.093571 -1.164341 -0.009025 -1.836031 0.485775 0.193693 0.012402 0.070337 0.204932 -0.021682 1.013427 -0.074674 -1.881943 -0.265664 -0.053440 -0.288767 
0.003420 0.955466 0.006896 0.543934 0.429477 0.037677 -0.430962 -0.010406 -0.047244 -0.004247 0.046776 -0.572292 1.119186 2.630370 0.273311 0.809651 -0.218860 1.205255 -0.836794 -0.118644 -2.911107 -2.009657 -4.852295 -0.061869 -0.278518 0.007375 -1.218466 -1.902769 0.250183 0.509222 1.198812 0.325683 0.904106 -0.644716 0.752809 3.178392 1.540807 -2.713121 0.090482 -1.058208 -0.037603 -1.965580 0.419965 0.135338 -0.120409 0.126181 0.285314 -0.033037 0.871109 -0.057572 -2.023900 -0.138656 0.124847 -0.870270 
0.004849 0.955892 0.008173 0.452921 0.417198 -0.032819 -0.302540 0.006535 0.068005 0.093034 0.034072 -0.614833 1.058742 2.485852 0.254651 1.017120 -0.246384 1.267381 -0.899330 -0.122875 -3.049745 -1.999179 -4.671569 -0.142538 -0.286621 0.010754 -1.135554 -1.803354 0.236805 0.589758 1.020556 0.291083 0.970211 -0.639023 0.772061 3.412569 1.498961 -2.698194 0.088185 -1.053335 -0.051495 -2.092409 0.417169 0.122132 -0.169757 0.547535 0.313985 -0.078421 0.538556 -0.019520 -2.327365 -0.003159 0.203037 -0.957645 
0.003965 0.955657 0.006976 0.423572 0.424353 -0.034340 -0.210854 0.004588 0.047927 0.152923 0.023829 -0.610969 1.057661 2.449944 0.228619 1.045845 -0.254833 1.312168 -0.876068 -0.140042 -3.233080 -1.933178 -4.399648 -0.200970 -0.363885 0.021454 -1.130031 -1.880546 0.247636 0.767573 1.087264 0.287923 0.905186 -0.572236 0.745422 3.635563 1.500575 -2.712903 0.088080 -1.058822 -0.047168 -2.058232 0.582796 0.092678 -0.557934 0.678791 0.243241 -0.087393 0.318419 0.004023 -2.487724 0.109303 0.292556 -1.143295 
